<svg xmlns="http://www.w3.org/2000/svg" data-name="Layer 1" viewBox="0 0 110.95 103.16">
  <path d="M106.48 17.94v11.48h-4.51v4.5h4.51v60.4h4.47V17.94h-4.47zM13.42 24.93h-4.5v4.5h4.51v-4.49h84.02v-4.47H13.42v4.46zM97.46 24.93h4.51v4.51h-4.51z"></path>
  <path d="M101.97 98.69H8.95v-4.5H4.47V33.92h4.45v-4.5H4.47V8.97h4.48v-4.5h32.63V0H8.95v4.46H4.44v4.47H0V94.2h4.44v4.49h4.48v4.47h93.06v-4.45h4.49V94.2h-4.5v4.49z"></path>
  <path d="M41.6 4.46h4.51v4.51H41.6zM101.97 17.94h4.5v-4.51h-4.49V8.97H46.11v4.47h55.86v4.5z"></path>
</svg>