<svg
  xmlns="http://www.w3.org/2000/svg"
  width="24"
  height="24"
  viewBox="0 0 24 24"
  fill="none"
  stroke="currentColor"
  stroke-width="2"
  stroke-linecap="round"
  stroke-linejoin="round"
  class="feather feather-github"
>
  <path
    d="M12 1C5.92 1 1 5.92 1 12c0 4.87 3.14 9 7.5 10.5.55.1.75-.24.75-.53v-2c-3.07.67-3.72-1.47-3.72-1.47-.5-1.24-1.22-1.57-1.22-1.57-.99-.68.07-.67.07-.67 1.1.08 1.68 1.13 1.68 1.13.97 1.66 2.53 1.18 3.15.9.1-.7.38-1.18.68-1.45-2.45-.28-5.02-1.23-5.02-5.47 0-1.2.43-2.18 1.14-2.95-.11-.28-.5-1.4.11-2.93 0 0 .94-.3 3.08 1.14a10.68 10.68 0 0 1 5.62 0c2.13-1.44 3.07-1.14 3.07-1.14.6 1.53.23 2.65.12 2.93.71.77 1.14 1.75 1.14 2.95 0 4.25-2.58 5.18-5.04 5.46.39.34.73 1.01.73 2.04v3.03c0 .3.2.63.76.52A10.5 10.5 0 0 0 23 12c0-6.08-4.92-11-11-11z"
  />
</svg>
